<svg xmlns="http://www.w3.org/2000/svg" xmlns:xlink="http://www.w3.org/1999/xlink" viewBox="0 0 24 24" fill="#FFFFFF">
  <path d="M12 4C5.142 4 1.8857031 9.8786406 1.0957031 11.556641C0.96370312 11.836641 0.96370313 12.161406 1.0957031 12.441406C1.8857031 14.120406 5.142 20 12 20C18.834 20 22.092484 14.162937 22.896484 12.460938C23.034484 12.167938 23.034484 11.832062 22.896484 11.539062C22.092484 9.8370625 18.834 4 12 4 z M 12 7C14.761 7 17 9.239 17 12C17 14.761 14.761 17 12 17C9.239 17 7 14.761 7 12C7 9.239 9.239 7 12 7 z M 12 9 A 3 3 0 0 0 9 12 A 3 3 0 0 0 12 15 A 3 3 0 0 0 15 12 A 3 3 0 0 0 12 9 z" fill="#FFFFFF" />
</svg>